# xmcd
#
# Track frame offsets: 
#        183
#        16023
#        33423
#        43208
#        60608
#        73103
#        85273
#        101015
#        112980
#        124778
#        138370
#        157188
#        169345
#        179873
#        192595
#        209875
#        221740
#        240365
#        258325
#        278678
#        289123
#        302428
#
# Disc length: 4256 seconds
#
# Revision: 4
# Processed by: cddbd v1.5.2PL0 Copyright (c) Steve Scherf et al.
# Submitted via: ExactAudioCopy v0.99pb4
#
DISCID=51109e16
DTITLE=Howlin' Wolf - The Power of the Voice
DYEAR=1900
DGENRE=Unknown
TTITLE0=I ain't superstitious
TTITLE1=Sittin' on the top of the world
TTITLE2=Built for comfort
TTITLE3=The red rooster
TTITLE4=Highway 49
TTITLE5=Cause of it all
TTITLE6=Killing floor
TTITLE7=Brownskin woman
TTITLE8=The sun is rising
TTITLE9=I'm the wolf
TTITLE10=House rockin' boogie
TTITLE11=Dog me around
TTITLE12=Keep what you got
TTITLE13=My baby stole off
TTITLE14=Crying at daybreak
TTITLE15=Passing by blues
TTITLE16=Poor boy
TTITLE17=Commit a crime
TTITLE18=Wang-dang-doodle
TTITLE19=Do the do
TTITLE20=Worried about my baby
TTITLE21=Rockin' daddy
EXTD=
EXTT0=
EXTT1=
EXTT2=
EXTT3=
EXTT4=
EXTT5=
EXTT6=
EXTT7=
EXTT8=
EXTT9=
EXTT10=
EXTT11=
EXTT12=
EXTT13=
EXTT14=
EXTT15=
EXTT16=
EXTT17=
EXTT18=
EXTT19=
EXTT20=
EXTT21=
PLAYORDER=
